<svg width="100" height="100" viewBox="0 0 100 100" fill="none" xmlns="http://www.w3.org/2000/svg">
<rect width="100" height="100" fill="#F32EBC"/>
<path d="M34.008 66.288C29.656 66.288 26.264 65.04 23.832 62.544C21.4 60.048 20.184 56.416 20.184 51.648V32.4H23.736V51.504C23.736 55.408 24.616 58.32 26.376 60.24C28.136 62.16 30.68 63.12 34.008 63.12C37.368 63.12 39.928 62.16 41.688 60.24C43.448 58.32 44.328 55.408 44.328 51.504V32.4H47.784V51.648C47.784 56.416 46.568 60.048 44.136 62.544C41.736 65.04 38.36 66.288 34.008 66.288ZM79.0909 66L68.2429 51.216L57.4429 66H53.3629L66.1309 48.72L54.1789 32.4H58.2589L68.3869 46.128L78.4669 32.4H82.3069L70.4029 48.624L83.2189 66H79.0909Z" fill="white"/>
</svg>
